<svg id="visual" viewBox="0 0 900 400" width="900" height="400" xmlns="http://www.w3.org/2000/svg" xmlns:xlink="http://www.w3.org/1999/xlink" version="1.1"><rect x="0" y="0" width="900" height="400" fill="#001220"></rect><g transform="translate(448.62087692749776 160.2745818456491)"><path d="M75.1 -76.5C110.1 -60.2 159.9 -48.6 180.6 -18.9C201.3 10.8 192.9 58.7 172.2 104C151.5 149.3 118.5 192.1 79.6 196.8C40.7 201.4 -4.1 167.9 -49.4 146.7C-94.7 125.4 -140.4 116.5 -166.1 88.1C-191.8 59.7 -197.3 12 -179.1 -21.3C-161 -54.5 -119 -73.2 -85.2 -89.7C-51.4 -106.3 -25.7 -120.6 -2.8 -117.3C20.1 -113.9 40.2 -92.9 75.1 -76.5" fill="#ef7b45"></path></g></svg>