<svg id="visual" viewBox="0 0 900 250"  xmlns="http://www.w3.org/2000/svg" xmlns:xlink="http://www.w3.org/1999/xlink" version="1.1"><rect x="0" y="0" width="900" height="250" fill="#001220"></rect><path d="M0 143L21.5 147.3C43 151.7 86 160.3 128.8 155.5C171.7 150.7 214.3 132.3 257.2 131.8C300 131.3 343 148.7 385.8 151.5C428.7 154.3 471.3 142.7 514.2 135.8C557 129 600 127 642.8 135C685.7 143 728.3 161 771.2 168.2C814 175.3 857 171.7 878.5 169.8L900 168L900 0L878.5 0C857 0 814 0 771.2 0C728.3 0 685.7 0 642.8 0C600 0 557 0 514.2 0C471.3 0 428.7 0 385.8 0C343 0 300 0 257.2 0C214.3 0 171.7 0 128.8 0C86 0 43 0 21.5 0L0 0Z" fill="#ef7b45"></path><path d="M0 101L21.5 103C43 105 86 109 128.8 116.3C171.7 123.7 214.3 134.3 257.2 136.7C300 139 343 133 385.8 125.7C428.7 118.3 471.3 109.7 514.2 106C557 102.3 600 103.7 642.8 102.7C685.7 101.7 728.3 98.3 771.2 104.3C814 110.3 857 125.7 878.5 133.3L900 141L900 0L878.5 0C857 0 814 0 771.2 0C728.3 0 685.7 0 642.8 0C600 0 557 0 514.2 0C471.3 0 428.7 0 385.8 0C343 0 300 0 257.2 0C214.3 0 171.7 0 128.8 0C86 0 43 0 21.5 0L0 0Z" fill="#e86b3a"></path><path d="M0 51L21.5 59.2C43 67.3 86 83.7 128.8 86.8C171.7 90 214.3 80 257.2 80.8C300 81.7 343 93.3 385.8 96.7C428.7 100 471.3 95 514.2 94.7C557 94.3 600 98.7 642.8 100.3C685.7 102 728.3 101 771.2 100.8C814 100.7 857 101.3 878.5 101.7L900 102L900 0L878.5 0C857 0 814 0 771.2 0C728.3 0 685.7 0 642.8 0C600 0 557 0 514.2 0C471.3 0 428.7 0 385.8 0C343 0 300 0 257.2 0C214.3 0 171.7 0 128.8 0C86 0 43 0 21.5 0L0 0Z" fill="#e05930"></path><path d="M0 32L21.5 34.3C43 36.7 86 41.3 128.8 46.3C171.7 51.3 214.3 56.7 257.2 59C300 61.3 343 60.7 385.8 60.7C428.7 60.7 471.3 61.3 514.2 61.5C557 61.7 600 61.3 642.8 60.5C685.7 59.7 728.3 58.3 771.2 52.2C814 46 857 35 878.5 29.5L900 24L900 0L878.5 0C857 0 814 0 771.2 0C728.3 0 685.7 0 642.8 0C600 0 557 0 514.2 0C471.3 0 428.7 0 385.8 0C343 0 300 0 257.2 0C214.3 0 171.7 0 128.8 0C86 0 43 0 21.5 0L0 0Z" fill="#d84727"></path></svg>