<svg id="visual" viewBox="0 0 900 300" xmlns="http://www.w3.org/2000/svg" xmlns:xlink="http://www.w3.org/1999/xlink" version="1.1"><path d="M0 209L16.7 207.8C33.3 206.7 66.7 204.3 100 195C133.3 185.7 166.7 169.3 200 157C233.3 144.7 266.7 136.3 300 141.2C333.3 146 366.7 164 400 171.3C433.3 178.7 466.7 175.3 500 168.7C533.3 162 566.7 152 600 148.3C633.3 144.7 666.7 147.3 700 158C733.3 168.7 766.7 187.3 800 189.8C833.3 192.3 866.7 178.7 883.3 171.8L900 165L900 301L883.3 301C866.7 301 833.3 301 800 301C766.7 301 733.3 301 700 301C666.7 301 633.3 301 600 301C566.7 301 533.3 301 500 301C466.7 301 433.3 301 400 301C366.7 301 333.3 301 300 301C266.7 301 233.3 301 200 301C166.7 301 133.3 301 100 301C66.7 301 33.3 301 16.7 301L0 301Z" fill="#ef7b45"></path><path d="M0 189L16.7 191.3C33.3 193.7 66.7 198.3 100 201.2C133.3 204 166.7 205 200 202.5C233.3 200 266.7 194 300 196.5C333.3 199 366.7 210 400 217.2C433.3 224.3 466.7 227.7 500 223.7C533.3 219.7 566.7 208.3 600 196.5C633.3 184.7 666.7 172.3 700 178.7C733.3 185 766.7 210 800 216C833.3 222 866.7 209 883.3 202.5L900 196L900 301L883.3 301C866.7 301 833.3 301 800 301C766.7 301 733.3 301 700 301C666.7 301 633.3 301 600 301C566.7 301 533.3 301 500 301C466.7 301 433.3 301 400 301C366.7 301 333.3 301 300 301C266.7 301 233.3 301 200 301C166.7 301 133.3 301 100 301C66.7 301 33.3 301 16.7 301L0 301Z" fill="#e86b3a"></path><path d="M0 214L16.7 214.8C33.3 215.7 66.7 217.3 100 219.2C133.3 221 166.7 223 200 228.7C233.3 234.3 266.7 243.7 300 239.7C333.3 235.7 366.7 218.3 400 216.2C433.3 214 466.7 227 500 236C533.3 245 566.7 250 600 249.7C633.3 249.3 666.7 243.7 700 236.2C733.3 228.7 766.7 219.3 800 212.5C833.3 205.7 866.7 201.3 883.3 199.2L900 197L900 301L883.3 301C866.7 301 833.3 301 800 301C766.7 301 733.3 301 700 301C666.7 301 633.3 301 600 301C566.7 301 533.3 301 500 301C466.7 301 433.3 301 400 301C366.7 301 333.3 301 300 301C266.7 301 233.3 301 200 301C166.7 301 133.3 301 100 301C66.7 301 33.3 301 16.7 301L0 301Z" fill="#e05930"></path><path d="M0 278L16.7 273.7C33.3 269.3 66.7 260.7 100 253C133.3 245.3 166.7 238.7 200 236.2C233.3 233.7 266.7 235.3 300 242C333.3 248.7 366.7 260.3 400 267.7C433.3 275 466.7 278 500 275C533.3 272 566.7 263 600 261.2C633.3 259.3 666.7 264.7 700 267.7C733.3 270.7 766.7 271.3 800 271.2C833.3 271 866.7 270 883.3 269.5L900 269L900 301L883.3 301C866.7 301 833.3 301 800 301C766.7 301 733.3 301 700 301C666.7 301 633.3 301 600 301C566.7 301 533.3 301 500 301C466.7 301 433.3 301 400 301C366.7 301 333.3 301 300 301C266.7 301 233.3 301 200 301C166.7 301 133.3 301 100 301C66.7 301 33.3 301 16.7 301L0 301Z" fill="#d84727"></path></svg>