<svg id="visual" viewBox="0 0 900 300" xmlns="http://www.w3.org/2000/svg" xmlns:xlink="http://www.w3.org/1999/xlink" version="1.1"><path d="M0 114L16.7 113.7C33.3 113.3 66.7 112.7 100 119.2C133.3 125.7 166.7 139.3 200 141.5C233.3 143.7 266.7 134.3 300 136C333.3 137.7 366.7 150.3 400 145.5C433.3 140.7 466.7 118.3 500 120C533.3 121.7 566.7 147.3 600 155.8C633.3 164.3 666.7 155.7 700 156C733.3 156.3 766.7 165.7 800 155.3C833.3 145 866.7 115 883.3 100L900 85L900 0L883.3 0C866.7 0 833.3 0 800 0C766.7 0 733.3 0 700 0C666.7 0 633.3 0 600 0C566.7 0 533.3 0 500 0C466.7 0 433.3 0 400 0C366.7 0 333.3 0 300 0C266.7 0 233.3 0 200 0C166.7 0 133.3 0 100 0C66.7 0 33.3 0 16.7 0L0 0Z" fill="#ef7b45"></path><path d="M0 126L16.7 124.5C33.3 123 66.7 120 100 113.3C133.3 106.7 166.7 96.3 200 89.3C233.3 82.3 266.7 78.7 300 77.3C333.3 76 366.7 77 400 85.5C433.3 94 466.7 110 500 116.7C533.3 123.3 566.7 120.7 600 112C633.3 103.3 666.7 88.7 700 91C733.3 93.3 766.7 112.7 800 114.5C833.3 116.3 866.7 100.7 883.3 92.8L900 85L900 0L883.3 0C866.7 0 833.3 0 800 0C766.7 0 733.3 0 700 0C666.7 0 633.3 0 600 0C566.7 0 533.3 0 500 0C466.7 0 433.3 0 400 0C366.7 0 333.3 0 300 0C266.7 0 233.3 0 200 0C166.7 0 133.3 0 100 0C66.7 0 33.3 0 16.7 0L0 0Z" fill="#e86b3a"></path><path d="M0 39L16.7 46.3C33.3 53.7 66.7 68.3 100 75.8C133.3 83.3 166.7 83.7 200 86.2C233.3 88.7 266.7 93.3 300 94.2C333.3 95 366.7 92 400 86C433.3 80 466.7 71 500 70.5C533.3 70 566.7 78 600 82.8C633.3 87.7 666.7 89.3 700 84.2C733.3 79 766.7 67 800 58.5C833.3 50 866.7 45 883.3 42.5L900 40L900 0L883.3 0C866.7 0 833.3 0 800 0C766.7 0 733.3 0 700 0C666.7 0 633.3 0 600 0C566.7 0 533.3 0 500 0C466.7 0 433.3 0 400 0C366.7 0 333.3 0 300 0C266.7 0 233.3 0 200 0C166.7 0 133.3 0 100 0C66.7 0 33.3 0 16.7 0L0 0Z" fill="#e05930"></path><path d="M0 18L16.7 20.5C33.3 23 66.7 28 100 27.8C133.3 27.7 166.7 22.3 200 24C233.3 25.7 266.7 34.3 300 42.3C333.3 50.3 366.7 57.7 400 59.5C433.3 61.3 466.7 57.7 500 50.8C533.3 44 566.7 34 600 34.5C633.3 35 666.7 46 700 50.5C733.3 55 766.7 53 800 51.8C833.3 50.7 866.7 50.3 883.3 50.2L900 50L900 0L883.3 0C866.7 0 833.3 0 800 0C766.7 0 733.3 0 700 0C666.7 0 633.3 0 600 0C566.7 0 533.3 0 500 0C466.7 0 433.3 0 400 0C366.7 0 333.3 0 300 0C266.7 0 233.3 0 200 0C166.7 0 133.3 0 100 0C66.7 0 33.3 0 16.7 0L0 0Z" fill="#d84727"></path></svg>